<svg xmlns="http://www.w3.org/2000/svg" viewBox="0 0 24 24" width="24" height="24" fill="none" stroke="#2E7D6B" stroke-width="2" stroke-linecap="round" stroke-linejoin="round">
  <circle cx="12" cy="12" r="2" fill="#2E7D6B" />
  <circle cx="12" cy="4" r="2" fill="#2E7D6B" />
  <circle cx="20" cy="12" r="2" fill="#2E7D6B" />
  <circle cx="12" cy="20" r="2" fill="#2E7D6B" />
  <circle cx="4" cy="12" r="2" fill="#2E7D6B" />
  <circle cx="18" cy="6" r="2" fill="#2E7D6B" />
  <circle cx="18" cy="18" r="2" fill="#2E7D6B" />
  <circle cx="6" cy="18" r="2" fill="#2E7D6B" />
  <circle cx="6" cy="6" r="2" fill="#2E7D6B" />
  <line x1="12" y1="6" x2="12" y2="10" />
  <line x1="14" y1="12" x2="18" y2="12" />
  <line x1="12" y1="14" x2="12" y2="18" />
  <line x1="10" y1="12" x2="6" y2="12" />
  <line x1="13.5" y1="10.5" x2="16.5" y2="7.5" />
  <line x1="13.5" y1="13.5" x2="16.5" y2="16.5" />
  <line x1="10.5" y1="13.5" x2="7.5" y2="16.5" />
  <line x1="10.5" y1="10.5" x2="7.5" y2="7.5" />
</svg>
