<svg xmlns="http://www.w3.org/2000/svg" viewBox="0 0 100 100" width="100" height="100" fill="#2E7D6B">
  <!-- Nœuds centraux et périphériques -->
  <circle cx="50" cy="50" r="10" />
  <circle cx="50" cy="20" r="10" />
  <circle cx="80" cy="50" r="10" />
  <circle cx="50" cy="80" r="10" />
  <circle cx="20" cy="50" r="10" />
  <circle cx="71" cy="29" r="10" />
  <circle cx="71" cy="71" r="10" />
  <circle cx="29" cy="71" r="10" />
  <circle cx="29" cy="29" r="10" />
  
  <!-- Lignes de connexion -->
  <line x1="50" y1="30" x2="50" y2="40" stroke="#2E7D6B" stroke-width="4" />
  <line x1="60" y1="50" x2="70" y2="50" stroke="#2E7D6B" stroke-width="4" />
  <line x1="50" y1="60" x2="50" y2="70" stroke="#2E7D6B" stroke-width="4" />
  <line x1="40" y1="50" x2="30" y2="50" stroke="#2E7D6B" stroke-width="4" />
  <line x1="57" y1="43" x2="64" y2="36" stroke="#2E7D6B" stroke-width="4" />
  <line x1="57" y1="57" x2="64" y2="64" stroke="#2E7D6B" stroke-width="4" />
  <line x1="43" y1="57" x2="36" y2="64" stroke="#2E7D6B" stroke-width="4" />
  <line x1="43" y1="43" x2="36" y2="36" stroke="#2E7D6B" stroke-width="4" />
</svg>
