<svg xmlns="http://www.w3.org/2000/svg" viewBox="0 0 100 100" width="100" height="100" fill="#2E7D6B">
  <!-- Nœuds centraux et périphériques -->
  <circle cx="50" cy="50" r="8" />
  <circle cx="50" cy="20" r="8" />
  <circle cx="80" cy="50" r="8" />
  <circle cx="50" cy="80" r="8" />
  <circle cx="20" cy="50" r="8" />
  <circle cx="71" cy="29" r="8" />
  <circle cx="71" cy="71" r="8" />
  <circle cx="29" cy="71" r="8" />
  <circle cx="29" cy="29" r="8" />
  
  <!-- Lignes de connexion -->
  <line x1="50" y1="28" x2="50" y2="42" stroke="#2E7D6B" stroke-width="3" />
  <line x1="58" y1="50" x2="72" y2="50" stroke="#2E7D6B" stroke-width="3" />
  <line x1="50" y1="58" x2="50" y2="72" stroke="#2E7D6B" stroke-width="3" />
  <line x1="42" y1="50" x2="28" y2="50" stroke="#2E7D6B" stroke-width="3" />
  <line x1="56" y1="44" x2="65" y2="35" stroke="#2E7D6B" stroke-width="3" />
  <line x1="56" y1="56" x2="65" y2="65" stroke="#2E7D6B" stroke-width="3" />
  <line x1="44" y1="56" x2="35" y2="65" stroke="#2E7D6B" stroke-width="3" />
  <line x1="44" y1="44" x2="35" y2="35" stroke="#2E7D6B" stroke-width="3" />
</svg>
